<svg xmlns="http://www.w3.org/2000/svg" viewBox="0 0 140.37 26.39"><defs><style>.a{fill:#231f20;}</style></defs><path class="a" d="M23.69,5.51h.16a1.22,1.22,0,0,1,1.39,1.37v.34q0,1.1-7.25,2.25c-.84.58-1.48,2.14-1.9,4.66q-2.34,11.43-4.31,13.28c-1.54,2.88-3.56,4.32-6,4.32H5.06q-3.28-.81-3.29-4V26a26,26,0,0,0,.52-2.59H3c.58.2.86,1.93.86,5.18a2.68,2.68,0,0,0,1.56,1,7.14,7.14,0,0,0,4.31-2.25q2-2.19,3.79-10.18l1.39-6.55V10q-5.48,1-6.21,1H7l-.18-.85V9Q11.35,7.75,23.69,5.51Z" transform="translate(-1.77 -5.33)"/><path class="a" d="M29.13,14.65c2.76.25,4.14.6,4.14,1a4.91,4.91,0,0,1,.52,1.89q0,3.66-6.21,10Q24,30.36,20.85,30.35a4.73,4.73,0,0,1-3.62-1.73,4.75,4.75,0,0,1-.52-1.55V26q0-3.42,4.48-7.24A22.67,22.67,0,0,1,29.13,14.65ZM18.78,25.85a2.91,2.91,0,0,0,1.89,2.59h1.22q4.09,0,10.35-10.17c0-1.15-.69-1.73-2.07-1.73h-.86a11.64,11.64,0,0,0-2.77,1.39,12.92,12.92,0,0,0-7.24,5.86Zm5.87-5.17h.52c1.49.09,2.23.32,2.23.7,0,1.3-.92,2.1-2.75,2.41h-.18a1.45,1.45,0,0,1-1.37-.86v-.7C23.25,21.2,23.76,20.68,24.65,20.68Z" transform="translate(-1.77 -5.33)"/><path class="a" d="M37.82,14.65h.69c.26,0,.43.28.52.85l-1.91,7.25h.18q4.5-7.41,5.87-7.41A7.32,7.32,0,0,1,45.24,15c2.3,0,3.44,1.32,3.44,4q-1.16,11.73-2.24,11.73h-.17A1.66,1.66,0,0,1,44.72,30a50.3,50.3,0,0,0,1.72-9.84c-.28-1.95-.68-2.93-1.2-2.93h-.36q-2,0-6.21,6.73a16.57,16.57,0,0,1-3.26,5.7h-.88a.31.31,0,0,1-.34-.34V28.8L36.6,16.89A3.78,3.78,0,0,1,37.82,14.65Z" transform="translate(-1.77 -5.33)"/><path class="a" d="M73.28,5.51c3.79,0,6.5.8,8.11,2.41V8.1c0,.82-.34,1.28-1,1.37Q79.19,7.64,73.45,7.4q-4.82,0-7.58,4.66a1.37,1.37,0,0,0-.18.69v.34q0,3.16,7.25,3.8Q77.59,18,77.59,21q-1.66,4-8.1,7.24Q63.1,30.7,61,30.69H59.3a.3.3,0,0,1-.34-.34q0-2.94,2.07-2.94a38.93,38.93,0,0,0,9.5-2.93q3.91-2.18,4-3.62,0-1.62-4.32-2.59Q64,17.28,64,16.2c-.3,0-.59-.29-.86-.86V13.61q0-5.68,6-7.76C71.31,5.62,72.69,5.51,73.28,5.51Z" transform="translate(-1.77 -5.33)"/><path class="a" d="M90.56,14.82h.52A1.22,1.22,0,0,1,92,16a21,21,0,0,0-2.59,10.35l-.87,2.95a1.83,1.83,0,0,1,.36.85,2.29,2.29,0,0,1-1,1.21h-.18a1.07,1.07,0,0,1-1.21-1.21V30a20.16,20.16,0,0,0,1.91-8.29v-.16a33,33,0,0,0-4.14,6.21c-1.49,1.84-2.82,2.75-4,2.75-1.61-.18-2.41-.92-2.41-2.23q0-6.53,10.69-12.94A8.89,8.89,0,0,1,90.56,14.82ZM79.35,27.41v.17l.18,1.22c1.13,0,2.79-1.27,5-3.8q4.65-7.26,4.66-8.62a21.8,21.8,0,0,0-6.91,5.51Q79.35,25.61,79.35,27.41Z" transform="translate(-1.77 -5.33)"/><path class="a" d="M97.3,14.47h.36a1.17,1.17,0,0,1,.68,1.21V16a13.81,13.81,0,0,1-1.56,3.11,35.07,35.07,0,0,1-1.19,3.46h.16A9.59,9.59,0,0,1,99.21,20a17.34,17.34,0,0,1,5.85-1.73c1.41,0,2.28,1,2.59,3.11-.21.52-.44.8-.68.85h-.51q-1.2,0-1.56-1.71-3.18,0-7.42,2.92a22.14,22.14,0,0,0-4.66,7.07l-.34.18H91.27c0-.2-.17-.48-.52-.86v-.17q0-.82,1.89-4.15Q95.6,16,97.3,14.47Z" transform="translate(-1.77 -5.33)"/><path class="a" d="M114.54,5.33h.68c.34.07.51.47.51,1.21q0,.43-1.89,6.55a37.38,37.38,0,0,0-1.73,7.07h.18l2.25-2.07c1.74-.94,3.86-2.27,6.37-4h.35l.86.18v.85c-.17.61-1.72,1.58-4.66,2.93l-1.55,1.21q1.47,2.26,2.25,7.43c0,1.26-.41,1.89-1.21,1.89h-.52c-.35-.12-.52-.46-.52-1l.52-2.24c-.43-2.55-1.06-4.21-1.89-5-2,1.25-3,2.17-3,2.76a34.49,34.49,0,0,1-1.19,3.63l.16,1.55c0,1.61-.52,2.41-1.55,2.41-.58,0-.86-.52-.86-1.55V29q2.92-9.76,2.93-13.46Q114,9,114,5.67Z" transform="translate(-1.77 -5.33)"/><path class="a" d="M125.66,15.16h.52c.27,0,.44.81.52,2.41a79,79,0,0,1-1.89,10.19c-.12,0-.18.6-.18,1.72v.35c0,.15-.29.44-.86.86h-.18c-1,0-1.55-.63-1.55-1.89q0-1.17,2.25-6.73C124.76,17.47,125.22,15.16,125.66,15.16Zm.86-9.65a2.34,2.34,0,0,1,1.21,1.89c0,.69-.74,1.27-2.24,1.73,0,.23-.29.34-.86.34-.69-.44-1-.85-1-1.21,1.18-1.83,2-2.75,2.41-2.75Z" transform="translate(-1.77 -5.33)"/><path class="a" d="M131.28,14.65H132c.26,0,.43.28.52.85l-1.91,7.25h.18q4.52-7.41,5.87-7.41A7.32,7.32,0,0,1,138.7,15c2.3,0,3.44,1.32,3.44,4Q141,30.69,139.9,30.69h-.17a1.67,1.67,0,0,1-1.55-.69,49.53,49.53,0,0,0,1.72-9.84c-.28-1.95-.68-2.93-1.2-2.93h-.36q-2,0-6.21,6.73a16.57,16.57,0,0,1-3.26,5.7H128a.31.31,0,0,1-.34-.34V28.8l2.41-11.91A3.78,3.78,0,0,1,131.28,14.65Z" transform="translate(-1.77 -5.33)"/></svg>